<svg xmlns="http://www.w3.org/2000/svg" viewBox="0 0 400 300" role="img" aria-labelledby="title">
  <title id="title">Fixed deposit versus mutual funds comparison illustration</title>
  <rect width="400" height="300" rx="16" fill="#F6F8FB"/>
  <line x1="200" y1="60" x2="200" y2="220" stroke="#0B1B33" stroke-width="6" stroke-linecap="round"/>
  <line x1="80" y1="110" x2="320" y2="110" stroke="#0B1B33" stroke-width="6" stroke-linecap="round"/>
  <circle cx="200" cy="60" r="8" fill="#0B1B33"/>

  <line x1="80" y1="110" x2="80" y2="160" stroke="#5B6472" stroke-width="3"/>
  <path d="M40 160 Q80 190 120 160 Z" fill="#1F4D3A"/>
  <rect x="55" y="150" width="50" height="14" rx="3" fill="#2E6B4F"/>
  <text x="80" y="200" text-anchor="middle" font-family="Arial, sans-serif" font-size="15" font-weight="700" fill="#0B1B33">FD</text>

  <line x1="320" y1="110" x2="320" y2="150" stroke="#5B6472" stroke-width="3"/>
  <path d="M280 150 Q320 180 360 150 Z" fill="#D9A441"/>
  <rect x="295" y="140" width="16" height="18" fill="#0B1B33" opacity="0.5"/>
  <rect x="313" y="132" width="16" height="26" fill="#0B1B33" opacity="0.65"/>
  <rect x="331" y="122" width="16" height="36" fill="#0B1B33" opacity="0.85"/>
  <text x="320" y="200" text-anchor="middle" font-family="Arial, sans-serif" font-size="15" font-weight="700" fill="#0B1B33">MF</text>

  <rect x="160" y="230" width="80" height="20" rx="10" fill="#0B1B33"/>
  <rect x="185" y="220" width="30" height="20" fill="#0B1B33"/>
</svg>
